# xmcd CD database file
#
# Track frame offsets:
#	150
#	20005
#	54842
#	85902
#
# Disc length: 1237 seconds
#
# Revision: 3
# Processed by: cddbd v1.5PL3 Copyright (c) Steve Scherf et al.
# Submitted via: CDex 1.51
#
DISCID=2604d304
DTITLE=Every Little Thing - 出逢った頃のように
DYEAR=1997
DGENRE=JPop
TTITLE0=出逢った頃のように
TTITLE1=出逢った頃のように（Summer Night Mix)
TTITLE2=出逢った頃のように(Instrumental)
TTITLE3=data
EXTD=YEAR: 1997
EXTT0=
EXTT1=
EXTT2=
EXTT3=
PLAYORDER=
